<mxfile host="app.diagrams.net" agent="Mozilla/5.0 (Macintosh; Intel Mac OS X 10_15_7) AppleWebKit/605.1.15 (KHTML, like Gecko) Version/17.5 Safari/605.1.15" version="24.8.1">
  <diagram name="Page-1" id="0Y_awO_fFXFy9RHz4deN">
    <mxGraphModel dx="983" dy="666" grid="1" gridSize="10" guides="1" tooltips="1" connect="1" arrows="1" fold="1" page="1" pageScale="1" pageWidth="1169" pageHeight="827" math="0" shadow="0">
      <root>
        <mxCell id="0" />
        <mxCell id="1" parent="0" />
        <mxCell id="RqU0fA0UJoxL_NazRyOK-11" value="UTENTE GENITORE" style="shape=umlActor;verticalLabelPosition=bottom;verticalAlign=top;html=1;outlineConnect=0;" parent="1" vertex="1">
          <mxGeometry x="50" y="280" width="30" height="60" as="geometry" />
        </mxCell>
        <mxCell id="RqU0fA0UJoxL_NazRyOK-14" value="UTENTE BAMBINO" style="shape=umlActor;verticalLabelPosition=bottom;verticalAlign=top;html=1;outlineConnect=0;" parent="1" vertex="1">
          <mxGeometry x="920" y="270" width="30" height="60" as="geometry" />
        </mxCell>
        <mxCell id="RqU0fA0UJoxL_NazRyOK-16" value="" style="endArrow=none;html=1;rounded=0;exitX=1;exitY=0.3333333333333333;exitDx=0;exitDy=0;exitPerimeter=0;entryX=-0.005;entryY=0.588;entryDx=0;entryDy=0;entryPerimeter=0;fillColor=#d5e8d4;strokeColor=#007373;" parent="1" target="RqU0fA0UJoxL_NazRyOK-3" edge="1">
          <mxGeometry width="50" height="50" relative="1" as="geometry">
            <mxPoint x="90" y="300" as="sourcePoint" />
            <mxPoint x="530" y="220" as="targetPoint" />
          </mxGeometry>
        </mxCell>
        <mxCell id="RqU0fA0UJoxL_NazRyOK-17" value="" style="endArrow=none;html=1;rounded=0;entryX=0;entryY=0.5;entryDx=0;entryDy=0;fillColor=#d5e8d4;strokeColor=#007373;" parent="1" target="RqU0fA0UJoxL_NazRyOK-5" edge="1">
          <mxGeometry width="50" height="50" relative="1" as="geometry">
            <mxPoint x="90" y="300" as="sourcePoint" />
            <mxPoint x="309" y="67" as="targetPoint" />
          </mxGeometry>
        </mxCell>
        <mxCell id="RqU0fA0UJoxL_NazRyOK-18" value="" style="endArrow=none;html=1;rounded=0;entryX=0;entryY=0.5;entryDx=0;entryDy=0;fillColor=#d5e8d4;strokeColor=#007373;" parent="1" target="RqU0fA0UJoxL_NazRyOK-7" edge="1">
          <mxGeometry width="50" height="50" relative="1" as="geometry">
            <mxPoint x="90" y="300" as="sourcePoint" />
            <mxPoint x="290" y="370" as="targetPoint" />
          </mxGeometry>
        </mxCell>
        <mxCell id="RqU0fA0UJoxL_NazRyOK-19" value="" style="endArrow=none;html=1;rounded=0;entryX=0;entryY=0.5;entryDx=0;entryDy=0;fillColor=#d5e8d4;strokeColor=#007373;" parent="1" target="RqU0fA0UJoxL_NazRyOK-8" edge="1">
          <mxGeometry width="50" height="50" relative="1" as="geometry">
            <mxPoint x="90" y="300" as="sourcePoint" />
            <mxPoint x="300" y="380" as="targetPoint" />
          </mxGeometry>
        </mxCell>
        <mxCell id="RqU0fA0UJoxL_NazRyOK-20" value="" style="endArrow=none;html=1;rounded=0;entryX=0;entryY=0.5;entryDx=0;entryDy=0;fillColor=#d5e8d4;strokeColor=#007373;" parent="1" target="RqU0fA0UJoxL_NazRyOK-15" edge="1">
          <mxGeometry width="50" height="50" relative="1" as="geometry">
            <mxPoint x="90" y="300" as="sourcePoint" />
            <mxPoint x="310" y="490" as="targetPoint" />
          </mxGeometry>
        </mxCell>
        <mxCell id="RqU0fA0UJoxL_NazRyOK-21" value="" style="endArrow=none;html=1;rounded=0;fillColor=#d5e8d4;strokeColor=#007373;" parent="1" target="RqU0fA0UJoxL_NazRyOK-4" edge="1">
          <mxGeometry width="50" height="50" relative="1" as="geometry">
            <mxPoint x="90" y="300" as="sourcePoint" />
            <mxPoint x="570" y="260" as="targetPoint" />
          </mxGeometry>
        </mxCell>
        <mxCell id="RqU0fA0UJoxL_NazRyOK-23" value="" style="endArrow=none;html=1;rounded=0;exitX=1;exitY=0.3333333333333333;exitDx=0;exitDy=0;exitPerimeter=0;fillColor=#d5e8d4;strokeColor=#007373;" parent="1" target="RqU0fA0UJoxL_NazRyOK-6" edge="1">
          <mxGeometry width="50" height="50" relative="1" as="geometry">
            <mxPoint x="90" y="300" as="sourcePoint" />
            <mxPoint x="572" y="138" as="targetPoint" />
          </mxGeometry>
        </mxCell>
        <mxCell id="RqU0fA0UJoxL_NazRyOK-24" value="" style="endArrow=none;html=1;rounded=0;fillColor=#d5e8d4;strokeColor=#007373;" parent="1" target="RqU0fA0UJoxL_NazRyOK-9" edge="1">
          <mxGeometry width="50" height="50" relative="1" as="geometry">
            <mxPoint x="90" y="300" as="sourcePoint" />
            <mxPoint x="552" y="228" as="targetPoint" />
          </mxGeometry>
        </mxCell>
        <mxCell id="RqU0fA0UJoxL_NazRyOK-26" value="" style="endArrow=none;html=1;rounded=0;entryX=0.048;entryY=0.288;entryDx=0;entryDy=0;fillColor=#d5e8d4;strokeColor=#007373;entryPerimeter=0;" parent="1" target="RqU0fA0UJoxL_NazRyOK-10" edge="1">
          <mxGeometry width="50" height="50" relative="1" as="geometry">
            <mxPoint x="90" y="300" as="sourcePoint" />
            <mxPoint x="540" y="318" as="targetPoint" />
          </mxGeometry>
        </mxCell>
        <mxCell id="RqU0fA0UJoxL_NazRyOK-27" value="" style="endArrow=none;html=1;rounded=0;entryX=1;entryY=1;entryDx=0;entryDy=0;fillColor=#dae8fc;strokeColor=#6c8ebf;" parent="1" target="RqU0fA0UJoxL_NazRyOK-4" edge="1">
          <mxGeometry width="50" height="50" relative="1" as="geometry">
            <mxPoint x="900" y="310" as="sourcePoint" />
            <mxPoint x="560" y="250" as="targetPoint" />
          </mxGeometry>
        </mxCell>
        <mxCell id="RqU0fA0UJoxL_NazRyOK-29" value="" style="endArrow=none;html=1;rounded=0;entryX=1;entryY=0.5;entryDx=0;entryDy=0;fillColor=#dae8fc;strokeColor=#6c8ebf;" parent="1" target="RqU0fA0UJoxL_NazRyOK-9" edge="1">
          <mxGeometry width="50" height="50" relative="1" as="geometry">
            <mxPoint x="900" y="310" as="sourcePoint" />
            <mxPoint x="728" y="138" as="targetPoint" />
          </mxGeometry>
        </mxCell>
        <mxCell id="RqU0fA0UJoxL_NazRyOK-30" value="" style="endArrow=none;html=1;rounded=0;entryX=1;entryY=0.5;entryDx=0;entryDy=0;fillColor=#dae8fc;strokeColor=#6c8ebf;" parent="1" target="RqU0fA0UJoxL_NazRyOK-10" edge="1">
          <mxGeometry width="50" height="50" relative="1" as="geometry">
            <mxPoint x="900" y="310" as="sourcePoint" />
            <mxPoint x="760" y="320" as="targetPoint" />
          </mxGeometry>
        </mxCell>
        <mxCell id="RqU0fA0UJoxL_NazRyOK-31" value="" style="endArrow=none;html=1;rounded=0;entryX=1;entryY=0.5;entryDx=0;entryDy=0;fillColor=#dae8fc;strokeColor=#6c8ebf;" parent="1" target="RqU0fA0UJoxL_NazRyOK-7" edge="1">
          <mxGeometry width="50" height="50" relative="1" as="geometry">
            <mxPoint x="900" y="310" as="sourcePoint" />
            <mxPoint x="530" y="250" as="targetPoint" />
          </mxGeometry>
        </mxCell>
        <mxCell id="RqU0fA0UJoxL_NazRyOK-32" value="" style="endArrow=none;html=1;rounded=0;entryX=1;entryY=0.5;entryDx=0;entryDy=0;fillColor=#dae8fc;strokeColor=#6c8ebf;" parent="1" target="RqU0fA0UJoxL_NazRyOK-3" edge="1">
          <mxGeometry width="50" height="50" relative="1" as="geometry">
            <mxPoint x="900" y="310" as="sourcePoint" />
            <mxPoint x="530" y="260" as="targetPoint" />
          </mxGeometry>
        </mxCell>
        <mxCell id="RqU0fA0UJoxL_NazRyOK-3" value="GESTIONE STIPENDIO" style="ellipse;whiteSpace=wrap;html=1;fillColor=#f5f5f5;fontColor=#333333;strokeColor=#666666;" parent="1" vertex="1">
          <mxGeometry x="300" y="10" width="220" height="80" as="geometry" />
        </mxCell>
        <mxCell id="RqU0fA0UJoxL_NazRyOK-4" value="INSERIMENTO SPESE&lt;span style=&quot;caret-color: rgba(0, 0, 0, 0); color: rgba(0, 0, 0, 0); font-family: monospace; font-size: 0px; text-align: start; white-space: nowrap;&quot;&gt;%3CmxGraphModel%3E%3Croot%3E%3CmxCell%20id%3D%220%22%2F%3E%3CmxCell%20id%3D%221%22%20parent%3D%220%22%2F%3E%3CmxCell%20id%3D%222%22%20value%3D%22GESTIONE%20STIPENDIO%22%20style%3D%22ellipse%3BwhiteSpace%3Dwrap%3Bhtml%3D1%3B%22%20vertex%3D%221%22%20parent%3D%221%22%3E%3CmxGeometry%20x%3D%22370%22%20y%3D%2220%22%20width%3D%22220%22%20height%3D%2280%22%20as%3D%22geometry%22%2F%3E%3C%2FmxCell%3E%3C%2Froot%3E%3C%2FmxGraphModel%3E&lt;/span&gt;" style="ellipse;whiteSpace=wrap;html=1;fillColor=#f5f5f5;fontColor=#333333;strokeColor=#666666;" parent="1" vertex="1">
          <mxGeometry x="530" y="60" width="220" height="80" as="geometry" />
        </mxCell>
        <mxCell id="RqU0fA0UJoxL_NazRyOK-42" style="edgeStyle=orthogonalEdgeStyle;rounded=0;orthogonalLoop=1;jettySize=auto;html=1;entryX=0.5;entryY=0;entryDx=0;entryDy=0;" parent="1" source="RqU0fA0UJoxL_NazRyOK-43" target="RqU0fA0UJoxL_NazRyOK-41" edge="1">
          <mxGeometry relative="1" as="geometry" />
        </mxCell>
        <mxCell id="RqU0fA0UJoxL_NazRyOK-5" value="CREAZIONE ACCOUNT GENITORE" style="ellipse;whiteSpace=wrap;html=1;fillColor=#f5f5f5;fontColor=#333333;strokeColor=#666666;" parent="1" vertex="1">
          <mxGeometry x="300" y="110" width="220" height="80" as="geometry" />
        </mxCell>
        <mxCell id="RqU0fA0UJoxL_NazRyOK-6" value="DIVISIONE SPESE" style="ellipse;whiteSpace=wrap;html=1;fillColor=#f5f5f5;fontColor=#333333;strokeColor=#666666;" parent="1" vertex="1">
          <mxGeometry x="530" y="160" width="220" height="80" as="geometry" />
        </mxCell>
        <mxCell id="RqU0fA0UJoxL_NazRyOK-7" value="MONITORAGGIO E STATISTICHE" style="ellipse;whiteSpace=wrap;html=1;fillColor=#f5f5f5;fontColor=#333333;strokeColor=#666666;" parent="1" vertex="1">
          <mxGeometry x="300" y="330" width="220" height="80" as="geometry" />
        </mxCell>
        <mxCell id="RqU0fA0UJoxL_NazRyOK-9" value="CREAZIONE CATEGORIE CUSTOM" style="ellipse;whiteSpace=wrap;html=1;fillColor=#f5f5f5;fontColor=#333333;strokeColor=#666666;" parent="1" vertex="1">
          <mxGeometry x="530" y="270" width="220" height="80" as="geometry" />
        </mxCell>
        <mxCell id="RqU0fA0UJoxL_NazRyOK-10" value="CREAZIONE GOAL DI RISPARMIO" style="ellipse;whiteSpace=wrap;html=1;fontStyle=0;fillColor=#f5f5f5;fontColor=#333333;strokeColor=#666666;" parent="1" vertex="1">
          <mxGeometry x="530" y="380" width="220" height="80" as="geometry" />
        </mxCell>
        <mxCell id="RqU0fA0UJoxL_NazRyOK-33" value="&lt;font style=&quot;font-size: 20px;&quot;&gt;USER CASE DIAGRAM&lt;/font&gt;" style="text;html=1;align=center;verticalAlign=middle;resizable=0;points=[];autosize=1;strokeColor=none;fillColor=none;" parent="1" vertex="1">
          <mxGeometry width="240" height="40" as="geometry" />
        </mxCell>
        <mxCell id="RqU0fA0UJoxL_NazRyOK-34" value="LOGIN / REGISTRAZIONE" style="ellipse;whiteSpace=wrap;html=1;fontStyle=0;fillColor=#f5f5f5;fontColor=#333333;strokeColor=#666666;" parent="1" vertex="1">
          <mxGeometry x="520" y="490" width="220" height="80" as="geometry" />
        </mxCell>
        <mxCell id="RqU0fA0UJoxL_NazRyOK-35" value="" style="endArrow=none;html=1;rounded=0;entryX=0.997;entryY=0.413;entryDx=0;entryDy=0;fillColor=#dae8fc;strokeColor=#6c8ebf;entryPerimeter=0;" parent="1" target="RqU0fA0UJoxL_NazRyOK-34" edge="1">
          <mxGeometry width="50" height="50" relative="1" as="geometry">
            <mxPoint x="900" y="310" as="sourcePoint" />
            <mxPoint x="760" y="430" as="targetPoint" />
          </mxGeometry>
        </mxCell>
        <mxCell id="RqU0fA0UJoxL_NazRyOK-36" value="" style="endArrow=none;html=1;rounded=0;entryX=0;entryY=0.5;entryDx=0;entryDy=0;fillColor=#d5e8d4;strokeColor=#007373;" parent="1" target="RqU0fA0UJoxL_NazRyOK-34" edge="1">
          <mxGeometry width="50" height="50" relative="1" as="geometry">
            <mxPoint x="90" y="300" as="sourcePoint" />
            <mxPoint x="310" y="490" as="targetPoint" />
          </mxGeometry>
        </mxCell>
        <mxCell id="RqU0fA0UJoxL_NazRyOK-15" value="MONITORAGGIO ATTIVITÀ FIGLIO" style="ellipse;whiteSpace=wrap;html=1;fontStyle=0;fillColor=#f5f5f5;fontColor=#333333;strokeColor=#666666;" parent="1" vertex="1">
          <mxGeometry x="300" y="560" width="220" height="80" as="geometry" />
        </mxCell>
        <mxCell id="RqU0fA0UJoxL_NazRyOK-38" value="&lt;font style=&quot;font-size: 20px;&quot;&gt;ACTIVITY DIAGRAM - INSERIMENTO SPESE&lt;/font&gt;" style="text;html=1;align=center;verticalAlign=middle;resizable=0;points=[];autosize=1;strokeColor=none;fillColor=none;" parent="1" vertex="1">
          <mxGeometry y="710" width="440" height="40" as="geometry" />
        </mxCell>
        <mxCell id="RqU0fA0UJoxL_NazRyOK-48" style="edgeStyle=orthogonalEdgeStyle;rounded=0;orthogonalLoop=1;jettySize=auto;html=1;" parent="1" source="RqU0fA0UJoxL_NazRyOK-39" target="RqU0fA0UJoxL_NazRyOK-46" edge="1">
          <mxGeometry relative="1" as="geometry" />
        </mxCell>
        <mxCell id="RqU0fA0UJoxL_NazRyOK-39" value="UTENTE&lt;div&gt;DEFINISCE UNO STIPENDIO&lt;/div&gt;" style="html=1;align=center;verticalAlign=middle;rounded=1;absoluteArcSize=1;arcSize=10;dashed=0;whiteSpace=wrap;" parent="1" vertex="1">
          <mxGeometry x="160" y="755" width="140" height="70" as="geometry" />
        </mxCell>
        <mxCell id="RqU0fA0UJoxL_NazRyOK-41" value="CREAZIONE ACCOUNT BAMBINO&lt;span style=&quot;caret-color: rgba(0, 0, 0, 0); color: rgba(0, 0, 0, 0); font-family: monospace; font-size: 0px; text-align: start; white-space: nowrap;&quot;&gt;%3CmxGraphModel%3E%3Croot%3E%3CmxCell%20id%3D%220%22%2F%3E%3CmxCell%20id%3D%221%22%20parent%3D%220%22%2F%3E%3CmxCell%20id%3D%222%22%20value%3D%22INSERIMENTO%20SPESE%26lt%3Bspan%20style%3D%26quot%3Bcaret-color%3A%20rgba(0%2C%200%2C%200%2C%200)%3B%20color%3A%20rgba(0%2C%200%2C%200%2C%200)%3B%20font-family%3A%20monospace%3B%20font-size%3A%200px%3B%20text-align%3A%20start%3B%20white-space%3A%20nowrap%3B%26quot%3B%26gt%3B%253CmxGraphModel%253E%253Croot%253E%253CmxCell%2520id%253D%25220%2522%252F%253E%253CmxCell%2520id%253D%25221%2522%2520parent%253D%25220%2522%252F%253E%253CmxCell%2520id%253D%25222%2522%2520value%253D%2522GESTIONE%2520STIPENDIO%2522%2520style%253D%2522ellipse%253BwhiteSpace%253Dwrap%253Bhtml%253D1%253B%2522%2520vertex%253D%25221%2522%2520parent%253D%25221%2522%253E%253CmxGeometry%2520x%253D%2522370%2522%2520y%253D%252220%2522%2520width%253D%2522220%2522%2520height%253D%252280%2522%2520as%253D%2522geometry%2522%252F%253E%253C%252FmxCell%253E%253C%252Froot%253E%253C%252FmxGraphModel%253E%26lt%3B%2Fspan%26gt%3B%22%20style%3D%22ellipse%3BwhiteSpace%3Dwrap%3Bhtml%3D1%3B%22%20vertex%3D%221%22%20parent%3D%221%22%3E%3CmxGeometry%20x%3D%22370%22%20y%3D%22130%22%20width%3D%22220%22%20height%3D%2280%22%20as%3D%22geometry%22%2F%3E%3C%2FmxCell%3E%3C%2Froot%3E%3C%2FmxGraphModel%3E&lt;/span&gt;" style="ellipse;whiteSpace=wrap;html=1;fillColor=#f5f5f5;fontColor=#333333;strokeColor=#666666;" parent="1" vertex="1">
          <mxGeometry x="300" y="220" width="220" height="80" as="geometry" />
        </mxCell>
        <mxCell id="RqU0fA0UJoxL_NazRyOK-44" value="" style="edgeStyle=orthogonalEdgeStyle;rounded=0;orthogonalLoop=1;jettySize=auto;html=1;entryX=0.5;entryY=0;entryDx=0;entryDy=0;" parent="1" source="RqU0fA0UJoxL_NazRyOK-5" target="RqU0fA0UJoxL_NazRyOK-43" edge="1">
          <mxGeometry relative="1" as="geometry">
            <mxPoint x="410" y="190" as="sourcePoint" />
            <mxPoint x="410" y="220" as="targetPoint" />
          </mxGeometry>
        </mxCell>
        <mxCell id="RqU0fA0UJoxL_NazRyOK-43" value="&amp;lt;&amp;lt;includes&amp;gt;&amp;gt;" style="text;html=1;align=center;verticalAlign=middle;resizable=0;points=[];autosize=1;strokeColor=none;fillColor=default;" parent="1" vertex="1">
          <mxGeometry x="360" y="185" width="100" height="30" as="geometry" />
        </mxCell>
        <mxCell id="RqU0fA0UJoxL_NazRyOK-8" value="REMINDER SCADENZE&amp;nbsp;" style="ellipse;whiteSpace=wrap;html=1;fillColor=#f5f5f5;fontColor=#333333;strokeColor=#666666;" parent="1" vertex="1">
          <mxGeometry x="300" y="440" width="220" height="80" as="geometry" />
        </mxCell>
        <mxCell id="RqU0fA0UJoxL_NazRyOK-45" value="UTENTE GENITORE" style="shape=umlActor;verticalLabelPosition=bottom;verticalAlign=top;html=1;outlineConnect=0;" parent="1" vertex="1">
          <mxGeometry x="50" y="755" width="30" height="60" as="geometry" />
        </mxCell>
        <mxCell id="RqU0fA0UJoxL_NazRyOK-78" style="edgeStyle=orthogonalEdgeStyle;rounded=0;orthogonalLoop=1;jettySize=auto;html=1;" parent="1" source="RqU0fA0UJoxL_NazRyOK-46" edge="1">
          <mxGeometry relative="1" as="geometry">
            <mxPoint x="630" y="790" as="targetPoint" />
          </mxGeometry>
        </mxCell>
        <mxCell id="RqU0fA0UJoxL_NazRyOK-46" value="UTENTE INSERISCE UNA SPESA&amp;nbsp;" style="html=1;align=center;verticalAlign=middle;rounded=1;absoluteArcSize=1;arcSize=10;dashed=0;whiteSpace=wrap;" parent="1" vertex="1">
          <mxGeometry x="350" y="752.5" width="140" height="75" as="geometry" />
        </mxCell>
        <mxCell id="RqU0fA0UJoxL_NazRyOK-64" style="edgeStyle=orthogonalEdgeStyle;rounded=0;orthogonalLoop=1;jettySize=auto;html=1;entryX=0;entryY=0.5;entryDx=0;entryDy=0;" parent="1" source="RqU0fA0UJoxL_NazRyOK-50" target="RqU0fA0UJoxL_NazRyOK-63" edge="1">
          <mxGeometry relative="1" as="geometry" />
        </mxCell>
        <mxCell id="RqU0fA0UJoxL_NazRyOK-50" value="CATEGORIA PREDEFINITA" style="html=1;align=center;verticalAlign=middle;rounded=1;absoluteArcSize=1;arcSize=10;dashed=0;whiteSpace=wrap;" parent="1" vertex="1">
          <mxGeometry x="550" y="912" width="140" height="70" as="geometry" />
        </mxCell>
        <mxCell id="RqU0fA0UJoxL_NazRyOK-65" style="edgeStyle=orthogonalEdgeStyle;rounded=0;orthogonalLoop=1;jettySize=auto;html=1;entryX=1;entryY=0.5;entryDx=0;entryDy=0;" parent="1" source="RqU0fA0UJoxL_NazRyOK-51" target="RqU0fA0UJoxL_NazRyOK-63" edge="1">
          <mxGeometry relative="1" as="geometry" />
        </mxCell>
        <mxCell id="RqU0fA0UJoxL_NazRyOK-51" value="INSERIMENTO CATEGORIA CUSTOM" style="html=1;align=center;verticalAlign=middle;rounded=1;absoluteArcSize=1;arcSize=10;dashed=0;whiteSpace=wrap;" parent="1" vertex="1">
          <mxGeometry x="710" y="912" width="140" height="70" as="geometry" />
        </mxCell>
        <mxCell id="RqU0fA0UJoxL_NazRyOK-55" value="SI" style="text;html=1;align=center;verticalAlign=middle;resizable=0;points=[];autosize=1;strokeColor=none;fillColor=none;" parent="1" vertex="1">
          <mxGeometry x="610" y="840" width="30" height="30" as="geometry" />
        </mxCell>
        <mxCell id="RqU0fA0UJoxL_NazRyOK-57" value="NO" style="text;html=1;align=center;verticalAlign=middle;resizable=0;points=[];autosize=1;strokeColor=none;fillColor=none;" parent="1" vertex="1">
          <mxGeometry x="750" y="840" width="40" height="30" as="geometry" />
        </mxCell>
        <mxCell id="RqU0fA0UJoxL_NazRyOK-60" style="edgeStyle=orthogonalEdgeStyle;rounded=0;orthogonalLoop=1;jettySize=auto;html=1;" parent="1" source="RqU0fA0UJoxL_NazRyOK-58" edge="1">
          <mxGeometry relative="1" as="geometry">
            <mxPoint x="620" y="912" as="targetPoint" />
          </mxGeometry>
        </mxCell>
        <mxCell id="RqU0fA0UJoxL_NazRyOK-61" style="edgeStyle=orthogonalEdgeStyle;rounded=0;orthogonalLoop=1;jettySize=auto;html=1;" parent="1" source="RqU0fA0UJoxL_NazRyOK-58" edge="1">
          <mxGeometry relative="1" as="geometry">
            <mxPoint x="780" y="912" as="targetPoint" />
          </mxGeometry>
        </mxCell>
        <mxCell id="RqU0fA0UJoxL_NazRyOK-80" value="" style="edgeStyle=orthogonalEdgeStyle;rounded=0;orthogonalLoop=1;jettySize=auto;html=1;" parent="1" source="RqU0fA0UJoxL_NazRyOK-47" target="RqU0fA0UJoxL_NazRyOK-58" edge="1">
          <mxGeometry relative="1" as="geometry" />
        </mxCell>
        <mxCell id="RqU0fA0UJoxL_NazRyOK-47" value="UTENTE SCEGLIE LA CATEGORIA&amp;nbsp;" style="html=1;align=center;verticalAlign=middle;rounded=1;absoluteArcSize=1;arcSize=10;dashed=0;whiteSpace=wrap;" parent="1" vertex="1">
          <mxGeometry x="630" y="755" width="140" height="70" as="geometry" />
        </mxCell>
        <mxCell id="RqU0fA0UJoxL_NazRyOK-69" style="edgeStyle=orthogonalEdgeStyle;rounded=0;orthogonalLoop=1;jettySize=auto;html=1;entryX=0;entryY=0.5;entryDx=0;entryDy=0;" parent="1" source="RqU0fA0UJoxL_NazRyOK-63" target="RqU0fA0UJoxL_NazRyOK-66" edge="1">
          <mxGeometry relative="1" as="geometry">
            <Array as="points">
              <mxPoint x="700" y="1087" />
            </Array>
          </mxGeometry>
        </mxCell>
        <mxCell id="RqU0fA0UJoxL_NazRyOK-63" value="" style="rhombus;whiteSpace=wrap;html=1;" parent="1" vertex="1">
          <mxGeometry x="685" y="1012" width="30" height="50" as="geometry" />
        </mxCell>
        <mxCell id="RqU0fA0UJoxL_NazRyOK-66" value="AGGIUNTA ALLE SPESE MENSILI" style="html=1;align=center;verticalAlign=middle;rounded=1;absoluteArcSize=1;arcSize=10;dashed=0;whiteSpace=wrap;" parent="1" vertex="1">
          <mxGeometry x="810" y="1052" width="140" height="70" as="geometry" />
        </mxCell>
        <mxCell id="RqU0fA0UJoxL_NazRyOK-58" value="" style="rhombus;whiteSpace=wrap;html=1;" parent="1" vertex="1">
          <mxGeometry x="685" y="840" width="30" height="50" as="geometry" />
        </mxCell>
      </root>
    </mxGraphModel>
  </diagram>
</mxfile>
